<?xml version="1.0" standalone="no"?><svg xmlns="http://www.w3.org/2000/svg" viewBox="0 0 1440 320"><path fill="#e8e9eb" fill-opacity="1" d="M0,0L30,10.7C60,21,120,43,180,90.7C240,139,300,213,360,234.7C420,256,480,224,540,229.3C600,235,660,277,720,293.3C780,309,840,299,900,277.3C960,256,1020,224,1080,202.7C1140,181,1200,171,1260,160C1320,149,1380,139,1410,133.3L1440,128L1440,320L1410,320C1380,320,1320,320,1260,320C1200,320,1140,320,1080,320C1020,320,960,320,900,320C840,320,780,320,720,320C660,320,600,320,540,320C480,320,420,320,360,320C300,320,240,320,180,320C120,320,60,320,30,320L0,320Z"></path></svg>